<?xml version="1.0" encoding="UTF-8"?>
<svg width="32" height="32" viewBox="0 0 32 32" fill="none" xmlns="http://www.w3.org/2000/svg">
  <path d="M16 0C24.8366 0 32 7.16344 32 16C32 24.8366 24.8366 32 16 32C7.16344 32 0 24.8366 0 16C0 7.16344 7.16344 0 16 0Z" fill="#0052FF"/>
  <path d="M16.0002 5.33325C21.8913 5.33325 26.6668 10.1088 26.6668 15.9999C26.6668 21.891 21.8913 26.6666 16.0002 26.6666C10.109 26.6666 5.3335 21.891 5.3335 15.9999C5.3335 10.1088 10.109 5.33325 16.0002 5.33325Z" fill="white"/>
  <path d="M16.0002 9.33325C19.6821 9.33325 22.6668 12.318 22.6668 15.9999C22.6668 19.6818 19.6821 22.6666 16.0002 22.6666C12.3183 22.6666 9.3335 19.6818 9.3335 15.9999C9.3335 12.318 12.3183 9.33325 16.0002 9.33325Z" fill="#0052FF"/>
</svg>
